<svg width="257" height="229" viewBox="0 0 257 229" fill="none" xmlns="http://www.w3.org/2000/svg">
    <mask id="mask0_4144_23498" style="mask-type:luminance" maskUnits="userSpaceOnUse" x="136" y="118" width="121"
          height="111">
        <path d="M136.469 118.326H257V228.992H136.469V118.326Z" fill="white"/>
    </mask>
    <g mask="url(#mask0_4144_23498)">
        <path fill-rule="evenodd" clip-rule="evenodd"
              d="M237.844 228.628H155.745C148.745 228.628 142.682 225.362 138.948 219.299C135.688 213.237 135.688 206.237 138.948 200.174C140.349 197.841 142.682 194.112 145.479 188.977C167.406 148.862 181.401 125.07 186.995 121.805C189.797 120.409 193.526 119.477 196.792 119.477C200.526 119.477 203.792 120.409 206.589 121.805C212.188 125.539 226.182 149.331 248.104 188.977C250.906 194.112 253.234 197.841 254.635 200.174C256.037 202.971 256.969 206.237 256.969 209.503C256.969 220.232 248.573 228.628 237.844 228.628ZM196.792 211.836C194.458 211.836 193.063 210.435 193.063 208.107V200.174C193.063 198.31 194.458 196.44 196.792 196.44C198.662 196.44 200.526 198.31 200.526 200.174V208.107C200.526 210.435 198.662 211.836 196.792 211.836ZM196.792 186.648C194.458 186.648 193.063 185.247 193.063 182.914V151.195C193.063 149.331 194.458 147.461 196.792 147.461C198.662 147.461 200.526 149.331 200.526 151.195V182.914C200.526 185.247 198.662 186.648 196.792 186.648Z"
              fill="#FBFB02"/>
    </g>
    <path fill-rule="evenodd" clip-rule="evenodd"
          d="M126.823 28.513C124.958 28.513 123.089 26.6484 123.089 24.7786V7.51823C123.089 5.19011 124.958 3.78906 126.823 3.78906C128.688 3.78906 130.552 5.19011 130.552 7.51823V24.7786C130.552 26.6484 128.688 28.513 126.823 28.513Z"
          fill="#D65931"/>
    <path fill-rule="evenodd" clip-rule="evenodd"
          d="M166.005 40.6379C165.542 40.6379 164.604 40.1743 164.141 39.7056C162.276 38.7733 161.807 36.4399 162.74 34.5754L171.135 20.117C172.537 18.2472 174.87 17.3149 176.266 18.716C178.135 19.6483 178.599 21.9816 177.667 23.8462L169.271 38.3097C168.339 39.7056 167.406 40.6379 166.005 40.6379Z"
          fill="#D65931"/>
    <path fill-rule="evenodd" clip-rule="evenodd"
          d="M193.995 70.4923C192.594 70.4923 191.198 70.0288 190.729 68.6278C189.328 66.7632 190.26 64.4298 192.13 63.4976L207.057 55.1017C208.453 53.7007 210.786 54.633 211.719 56.5028C213.12 57.8986 212.187 60.2319 210.786 61.633L195.859 70.0288C194.927 70.4923 194.458 70.4923 193.995 70.4923Z"
          fill="#D65931"/>
    <mask id="mask1_4144_23498" style="mask-type:luminance" maskUnits="userSpaceOnUse" x="20" y="0" width="209"
          height="208">
        <path d="M20 0.0078125H228.469V207.659H20V0.0078125Z" fill="white"/>
    </mask>
    <g mask="url(#mask1_4144_23498)">
        <path fill-rule="evenodd" clip-rule="evenodd"
              d="M212.188 110.612H202.859C200.99 110.612 199.125 108.747 199.125 106.878C199.125 104.549 200.99 103.148 202.859 103.148H212.651C212.188 54.1693 172.536 14.9818 123.557 14.9818C74.5781 14.9818 34.9271 54.6328 34.9271 103.612C34.9271 152.596 74.5781 192.711 123.557 192.711C126.823 192.711 129.62 192.242 132.422 192.242L135.219 191.779C134.286 193.174 133.354 195.044 132.422 196.44C130.552 199.706 129.62 203.44 129.156 207.169C127.286 207.638 125.422 207.638 123.557 207.638C66.6458 207.638 20 160.992 20 103.612C20 46.237 66.6458 0.0546875 123.557 0.0546875C180.932 0.0546875 227.578 46.237 227.578 103.612C227.578 112.013 226.646 120.409 224.781 128.336L223.849 131.602C220.115 126.471 215.917 119.94 211.719 116.674C212.188 114.341 212.188 112.477 212.188 110.612Z"
              fill="#D65931"/>
        <path fill-rule="evenodd" clip-rule="evenodd"
              d="M120.755 203.904C118.427 203.904 117.026 202.039 117.026 200.175V182.914C117.026 180.581 118.427 179.185 120.755 179.185C122.625 179.185 124.49 180.581 124.49 182.914V200.175C124.49 202.039 122.625 203.904 120.755 203.904Z"
              fill="#D65931"/>
        <path fill-rule="evenodd" clip-rule="evenodd"
              d="M73.1771 189.446C72.2448 189.446 71.7761 188.977 71.3125 188.977C69.4479 187.581 68.5104 185.248 69.9115 183.847L78.3073 168.92C79.2396 167.055 81.5729 166.586 83.4375 167.524C85.3073 168.456 85.7709 170.784 84.8386 172.654L76.4427 187.581C75.5104 188.513 74.1094 189.446 73.1771 189.446Z"
              fill="#D65931"/>
        <path fill-rule="evenodd" clip-rule="evenodd"
              d="M38.6562 153.06C37.7239 153.06 36.3281 152.128 35.8593 151.195C34.4583 149.331 35.3906 146.997 36.7916 146.065L51.7187 137.201C53.5833 136.268 55.9166 136.732 56.8489 138.602C57.7812 140.466 57.3177 142.799 55.4531 143.732L40.526 152.596C40.0572 152.596 39.5937 153.06 38.6562 153.06Z"
              fill="#D65931"/>
        <path fill-rule="evenodd" clip-rule="evenodd"
              d="M44.724 104.549H27.4636C25.599 104.549 23.7292 102.68 23.7292 100.815C23.7292 98.4818 25.599 97.0859 27.4636 97.0859H44.724C46.5886 97.0859 48.4532 98.4818 48.4532 100.815C48.4532 102.68 46.5886 104.549 44.724 104.549Z"
              fill="#D65931"/>
        <path fill-rule="evenodd" clip-rule="evenodd"
              d="M56.849 65.362C55.9167 65.362 55.4531 64.8984 54.9844 64.8984L40.0573 56.0338C38.1927 55.1015 37.724 52.7682 38.6563 50.9036C39.5938 49.039 41.9219 48.5703 43.7917 49.5026L58.7188 58.3672C60.5834 59.2995 61.0469 61.6328 60.1146 63.4974C59.1823 64.4297 58.25 65.362 56.849 65.362Z"
              fill="#D65931"/>
        <path fill-rule="evenodd" clip-rule="evenodd"
              d="M86.7031 37.3724C85.7708 37.3724 84.375 36.9088 83.4375 35.5078L75.0416 20.5807C74.1094 18.7161 74.5781 16.3828 76.4427 15.4505C78.3073 14.5182 80.6406 14.9818 81.5729 16.8516L89.9687 31.7786C90.901 33.6432 90.4375 35.9766 88.5729 36.9088C88.1041 37.3724 87.6406 37.3724 86.7031 37.3724Z"
              fill="#D65931"/>
        <path fill-rule="evenodd" clip-rule="evenodd"
              d="M97.8239 118.378C95.9594 118.378 94.5583 117.445 94.0896 115.581C93.626 113.711 95.0219 111.383 96.8916 110.914L120.678 104.852C122.548 103.919 124.412 105.315 124.876 107.185C125.814 109.049 124.412 111.383 122.548 111.846L98.7562 118.378C98.2875 118.378 98.2875 118.378 97.8239 118.378ZM132.34 98.3203C130.011 98.3203 128.61 96.4557 128.61 94.5859V50.737C128.61 48.8724 130.011 47.0078 132.34 47.0078C134.209 47.0078 136.074 48.8724 136.074 50.737V94.5859C136.074 96.4557 134.209 98.3203 132.34 98.3203Z"
              fill="#D65931"/>
        <path fill-rule="evenodd" clip-rule="evenodd"
              d="M131.484 121.805C123.089 121.805 116.557 115.274 116.557 106.878C116.557 98.9507 123.089 92.4194 131.484 92.4194C139.417 92.4194 145.948 98.9507 145.948 106.878C145.948 115.274 139.417 121.805 131.484 121.805Z"
              fill="#D65931"/>
    </g>
</svg>
